<?xml version="1.0" encoding="UTF-8"?>
<svg xmlns="http://www.w3.org/2000/svg" viewBox="0 0 400 400">
  <!-- Background -->
  <defs>
    <linearGradient id="bgGradient" x1="0%" y1="0%" x2="100%" y2="100%">
      <stop offset="0%" stop-color="#2E3192" />
      <stop offset="100%" stop-color="#1BFFFF" />
    </linearGradient>
    
    <linearGradient id="whisperGradient" x1="0%" y1="0%" x2="100%" y2="100%">
      <stop offset="0%" stop-color="#ffffff" stop-opacity="0.1" />
      <stop offset="100%" stop-color="#ffffff" stop-opacity="0.5" />
    </linearGradient>
    
    <filter id="glow" x="-20%" y="-20%" width="140%" height="140%">
      <feGaussianBlur stdDeviation="5" result="blur" />
      <feComposite in="SourceGraphic" in2="blur" operator="over" />
    </filter>
  </defs>
  
  <!-- Circular Base -->
  <circle cx="200" cy="200" r="160" fill="url(#bgGradient)" />
  
  <!-- Blockchain Hexagon Pattern -->
  <g opacity="0.15" fill="#ffffff">
    <polygon points="180,140 195,130 210,140 210,160 195,170 180,160" />
    <polygon points="220,160 235,150 250,160 250,180 235,190 220,180" />
    <polygon points="180,180 195,170 210,180 210,200 195,210 180,200" />
    <polygon points="140,160 155,150 170,160 170,180 155,190 140,180" />
    <polygon points="220,200 235,190 250,200 250,220 235,230 220,220" />
    <polygon points="180,220 195,210 210,220 210,240 195,250 180,240" />
    <polygon points="140,200 155,190 170,200 170,220 155,230 140,220" />
  </g>
  
  <!-- Speech Bubble / Whisper Symbol -->
  <path d="M200,120 Q280,120 280,180 Q280,240 200,240 Q180,240 160,235 L140,260 L150,230 Q120,210 120,180 Q120,120 200,120 Z" 
        fill="none" stroke="#ffffff" stroke-width="8" opacity="0.9" />
  
  <!-- Whisper Lines -->
  <g filter="url(#glow)">
    <path d="M190,160 Q210,170 230,160" fill="none" stroke="url(#whisperGradient)" stroke-width="3" />
    <path d="M170,180 Q200,195 230,180" fill="none" stroke="url(#whisperGradient)" stroke-width="3" />
    <path d="M170,200 Q200,215 230,200" fill="none" stroke="url(#whisperGradient)" stroke-width="3" />
  </g>
  
  <!-- Lock Symbol (representing security) -->
  <g transform="translate(200, 180) scale(0.5)">
    <rect x="-30" y="0" width="60" height="50" rx="10" fill="none" stroke="#ffffff" stroke-width="6" />
    <path d="M-15,-20 L-15,10 L15,10 L15,-20 A15,15 0 0 0 -15,-20" fill="none" stroke="#ffffff" stroke-width="6" />
  </g>
</svg> 